<!DOCTYPE svg PUBLIC "-//W3C//DTD SVG 1.1//EN" "http://www.w3.org/Graphics/SVG/1.1/DTD/svg11.dtd">
<!-- Uploaded to: SVG Repo, www.svgrepo.com, Transformed by: SVG Repo Mixer Tools -->
<svg fill="#000000" height="64px" width="64px" version="1.1" id="Layer_1" xmlns="http://www.w3.org/2000/svg" xmlns:xlink="http://www.w3.org/1999/xlink" viewBox="-50.38 -50.38 604.59 604.59" xml:space="preserve">
<g id="SVGRepo_bgCarrier" stroke-width="0"/>
<g id="SVGRepo_iconCarrier"> <g> <g> <g> <path d="M42.078,268.588h83.934c4.636,0,8.393-3.758,8.393-8.393c0-4.636-3.758-8.393-8.393-8.393H42.078 c-4.636,0-8.393,3.758-8.393,8.393C33.685,264.83,37.442,268.588,42.078,268.588z"/> <path d="M42.078,235.014h83.934c4.636,0,8.393-3.758,8.393-8.393s-3.758-8.393-8.393-8.393H42.078 c-4.636,0-8.393,3.758-8.393,8.393S37.442,235.014,42.078,235.014z"/> <path d="M126.012,302.161c4.636,0,8.393-3.758,8.393-8.393c0-4.636-3.758-8.393-8.393-8.393H42.078 c-4.636,0-8.393,3.758-8.393,8.393c0,4.636,3.758,8.393,8.393,8.393H126.012z"/> <path d="M302.275,277.088c-4.636,0-8.393,3.758-8.393,8.393c0,17.037-3.577,27.345-11.02,37.735 c-0.997,1.392-6.163,8.12-7.522,10.089c-2.567,3.719-4.37,7.237-5.449,10.93h-1.944c-0.499-8.43,0.249-15.259,2.081-24.09 c-0.032,0.156,0.862-4.094,1.099-5.279c0.414-2.068,0.717-3.792,0.949-5.489c1.261-9.208,0.224-17.315-4.065-27.23 c-1.841-4.255-6.782-6.211-11.036-4.371c-4.255,1.841-6.211,6.782-4.371,11.036c3.051,7.053,3.693,12.067,2.841,18.286 c-0.18,1.31-0.426,2.715-0.778,4.473c-0.218,1.088-1.092,5.243-1.075,5.162c-2.048,9.869-2.943,17.905-2.459,27.501h-3.32 c-3.171-4.876-4.344-9.436-4.465-15.379c-0.039-1.915,0.003-3.465,0.166-7.282c0.734-17.223-0.901-26.818-9.704-40.609 c-2.494-3.907-7.684-5.053-11.591-2.559s-5.053,7.684-2.559,11.591c6.584,10.315,7.683,16.764,7.083,30.863 c-0.178,4.174-0.226,5.95-0.178,8.338c0.199,9.763,2.584,17.884,8.563,26.213v47.696c0,27.755-22.606,50.361-50.361,50.361 h-25.18c-27.784,0-50.359-22.635-50.361-50.585c9.277,0,16.787-7.51,16.787-16.787v-16.787c4.636,0,8.393-3.758,8.393-8.393 s-3.758-8.393-8.393-8.393v-16.784h33.574c4.636,0,8.393-3.758,8.393-8.393V125.902c0-4.636-3.758-8.393-8.393-8.393h-8.393 V58.754c0-4.636-3.758-8.393-8.393-8.393V8.393c0-4.636-3.758-8.393-8.393-8.393H33.685c-4.636,0-8.393,3.758-8.393,8.393v41.967 c-4.636,0-8.393,3.758-8.393,8.393v58.754H8.504c-4.636,0-8.393,3.758-8.393,8.393v201.443c0,4.636,3.758,8.393,8.393,8.393 h33.574v16.784c-4.636,0-8.393,3.758-8.393,8.393s3.758,8.393,8.393,8.393v16.787c0,9.277,7.51,16.787,16.787,16.787h0 c0.001,55.729,45.142,100.945,100.721,100.945h25.18c55.542,0,100.721-45.18,100.721-100.721v-50.478 c0-3.291,1.029-5.965,3.667-9.788c1.06-1.536,6.103-8.105,7.352-9.848c9.412-13.138,14.16-26.822,14.16-47.511 C310.668,280.846,306.91,277.088,302.275,277.088z M42.078,16.787h83.934v33.574H42.078V16.787z M33.685,67.148h100.721v50.361 H33.685V67.148z M16.898,134.295h8.393h117.508h8.393v184.656h-33.524c-0.017,0-0.033-0.003-0.05-0.003H50.471 c-0.017,0-0.033,0.002-0.05,0.003H16.898V134.295z M58.865,335.738h50.361v16.784H58.865V335.738z M109.226,369.309v16.787 h-8.344c-0.017,0-0.033-0.003-0.05-0.003H67.258c-0.017,0-0.033,0.002-0.05,0.003h-8.344v-16.787H109.226z M268.701,403.107 c0,46.271-37.664,83.934-83.934,83.934h-25.18c-46.302,0-83.933-37.694-83.934-84.159h16.787 c0.001,37.211,30.082,67.372,67.147,67.372h25.18c37.026,0,67.148-30.122,67.148-67.148v-42.085h16.787V403.107z"/> <path d="M402.996,0.219h-58.754c-55.542,0-100.721,45.18-100.721,100.721v75.424c0,0,0,0.001,0,0.001s0,0.001,0,0.001 c0,3.291-1.029,5.965-3.667,9.788c-1.06,1.535-6.103,8.105-7.352,9.848c-9.412,13.138-14.161,26.822-14.161,47.511 c0,4.636,3.758,8.393,8.393,8.393c4.636,0,8.393-3.758,8.393-8.393c0-17.037,3.577-27.345,11.02-37.735 c0.997-1.392,6.163-8.12,7.522-10.089c2.568-3.72,4.371-7.238,5.45-10.933h1.943c0.5,8.434-0.249,15.265-2.081,24.096 c0.032-0.153-0.862,4.095-1.099,5.279c-0.414,2.068-0.717,3.792-0.949,5.489c-1.261,9.206-0.223,17.312,4.065,27.226 c1.841,4.255,6.782,6.211,11.036,4.371s6.211-6.782,4.371-11.036c-3.051-7.052-3.693-12.065-2.841-18.283 c0.18-1.31,0.426-2.715,0.778-4.473c0.218-1.087,1.092-5.24,1.076-5.162c2.048-9.869,2.944-17.907,2.459-27.507h3.314 c3.174,4.875,4.349,9.434,4.471,15.376c0.039,1.917-0.003,3.469-0.166,7.291c-0.734,17.223,0.901,26.818,9.705,40.606 c2.495,3.907,7.684,5.052,11.591,2.557c3.907-2.495,5.052-7.684,2.557-11.591c-6.584-10.311-7.682-16.759-7.082-30.858 c0.178-4.181,0.227-5.959,0.177-8.351c-0.201-9.757-2.586-17.874-8.563-26.198v-72.65c0-27.76,22.603-50.361,50.361-50.361 h58.754c27.758,0,50.361,22.601,50.361,50.361v394.492c0,4.636,3.758,8.393,8.393,8.393h33.574c4.636,0,8.393-3.758,8.393-8.393 V100.94C503.717,45.399,458.538,0.219,402.996,0.219z M486.93,487.039h-16.787V100.94c0-37.031-30.119-67.148-67.148-67.148 h-58.754c-37.029,0-67.148,30.116-67.148,67.148v67.03h-16.787v-67.03c0-46.271,37.664-83.934,83.934-83.934h58.754 c46.271,0,83.934,37.664,83.934,83.934V487.039z"/> </g> </g> </g> </g>
</svg>