<!DOCTYPE svg PUBLIC "-//W3C//DTD SVG 1.1//EN" "http://www.w3.org/Graphics/SVG/1.1/DTD/svg11.dtd">
<!-- Uploaded to: SVG Repo, www.svgrepo.com, Transformed by: SVG Repo Mixer Tools -->
<svg fill="#000000" height="64px" width="64px" version="1.1" id="Capa_1" xmlns="http://www.w3.org/2000/svg" xmlns:xlink="http://www.w3.org/1999/xlink" viewBox="-34.71 -34.71 416.56 416.56" xml:space="preserve" stroke="#000000" stroke-width="0.00347145">
<g id="SVGRepo_bgCarrier" stroke-width="0"/>
<g id="SVGRepo_iconCarrier"> <g> <path d="M341.145,53.109H6c-3.314,0-6,2.686-6,6v52.154v32.018v144.753c0,3.313,2.686,6,6,6h335.145c3.314,0,6-2.687,6-6V143.282 v-32.018V59.109C347.145,55.796,344.458,53.109,341.145,53.109z M335.145,65.109v40.154H12V65.109H335.145z M335.145,137.282H12 v-20.018h323.145V137.282z M12,282.035V149.282h323.145v132.753H12z"/> <path d="M300.861,200.962H198.1c-3.314,0-6,2.687-6,6v29.435c0,3.314,2.686,6,6,6h102.762c3.314,0,6-2.686,6-6v-29.435 C306.861,203.648,304.175,200.962,300.861,200.962z M294.861,230.396H204.1v-17.435h90.762V230.396z"/> </g> </g>
</svg>